<svg width="80" height="81" viewBox="0 0 80 81" fill="none" xmlns="http://www.w3.org/2000/svg">
<path d="M21.4008 51.3126C22.1479 50.8817 22.4037 49.9252 21.9727 49.1782C21.5412 48.4317 20.5854 48.1753 19.8383 48.6063C19.0913 49.0378 18.8349 49.9942 19.2664 50.7407C19.6974 51.4877 20.6538 51.7441 21.4008 51.3126Z" fill="#35C5D4"/>
<path d="M14.9975 62.0968L22.8662 75.7266C24.5642 78.6709 28.3838 79.761 31.4044 78.0148C34.3933 76.2875 35.4205 72.4685 33.6914 69.4772L29.0039 61.3571L33.0633 59.0133C33.8104 58.5812 34.0668 57.626 33.6352 56.8789L31.6034 53.3596C31.8457 53.3126 33.4387 53.0001 61.5314 47.4893C65.0043 47.3007 67.0849 43.5024 65.3308 40.4659L60.1379 31.4718L63.4564 26.4456C63.7823 25.9512 63.8019 25.3158 63.5058 24.8031L60.3808 19.3905C60.0848 18.8778 59.5227 18.5775 58.9337 18.6123L52.9223 18.973L47.1576 8.98767C46.3226 7.54114 44.8266 6.66528 43.1567 6.64453C43.1366 6.64392 43.117 6.64392 43.0969 6.64392C41.4831 6.64392 40.0183 7.44714 39.1504 8.80518L18.739 34.8074L5.46934 42.4685C0.250219 45.4806 -1.55764 52.1761 1.46604 57.4093C4.22849 62.1945 10.0525 64.0768 14.9975 62.0968ZM30.9857 71.0403C31.8487 72.5332 31.3379 74.4436 29.8407 75.3085C28.3386 76.177 26.4258 75.6436 25.5725 74.1647L17.76 60.6313L23.1726 57.5063C32.2143 73.1692 30.8404 70.7894 30.9857 71.0403ZM27.4414 58.6501L25.8789 55.9438L28.5852 54.3813L30.1477 57.0876L27.4414 58.6501ZM58.1573 21.7892L60.3168 25.5294L58.3911 28.4457L54.6692 21.9985L58.1573 21.7892ZM41.7639 10.5184C42.1832 9.8324 42.8485 9.7616 43.1183 9.76892C43.385 9.77197 44.0497 9.85498 44.4507 10.5496L62.6245 42.0284C63.2165 43.0532 62.4969 44.3417 61.3098 44.371C61.0968 44.3759 60.9985 44.4143 60.4529 44.5162L41.2286 11.2185C41.6321 10.6997 41.6839 10.6497 41.7639 10.5184ZM39.1492 13.8674L57.2113 45.1522L29.9518 50.4989L21.6632 36.1428L39.1492 13.8674ZM4.17234 55.8468C3.4863 54.6597 3.12375 53.312 3.12375 51.9485C3.12375 49.1616 4.62156 46.5664 7.03184 45.1748L19.2102 38.1436L27.0227 51.675L14.8443 58.7069C11.1133 60.8602 6.32627 59.5773 4.17234 55.8468Z" fill="#35C5D4"/>
<path d="M16.5602 52.3031C16.1286 51.556 15.1728 51.2997 14.4258 51.7312L11.7195 53.2937C10.9736 53.7246 10.016 53.4676 9.58505 52.7218C9.15353 51.9747 8.19772 51.7184 7.45065 52.1499C6.70358 52.5814 6.44723 53.5372 6.87875 54.2843C8.16476 56.5121 11.0334 57.2976 13.282 56L15.9883 54.4375C16.7353 54.006 16.9917 53.0508 16.5602 52.3031Z" fill="#35C5D4"/>
<path d="M77.6776 9.98625L68.971 14.8312C68.2172 15.2511 67.9456 16.2027 68.3655 16.9565C68.7842 17.7096 69.7351 17.9825 70.4908 17.5619L79.1968 12.717C79.9512 12.297 80.2222 11.3455 79.8023 10.5917C79.383 9.83732 78.4314 9.56633 77.6776 9.98625Z" fill="#35C5D4"/>
<path d="M76.7644 26.1691L70.7274 24.5517C69.8937 24.3283 69.0368 24.8227 68.8134 25.6564C68.59 26.4902 69.085 27.3465 69.9187 27.5699L75.9563 29.1873C76.795 29.4126 77.6476 28.9102 77.8698 28.0826C78.0932 27.2489 77.5982 26.3919 76.7644 26.1691Z" fill="#35C5D4"/>
<path d="M61.5936 4.3094L59.9743 10.347C59.7509 11.1807 60.2453 12.0371 61.0791 12.2611C61.9122 12.4838 62.7691 11.9907 62.9931 11.1563L64.6118 5.11873C64.8352 4.28499 64.3408 3.42805 63.507 3.20467C62.6739 2.98128 61.817 3.47566 61.5936 4.3094Z" fill="#35C5D4"/>
</svg>
