<svg width="80" height="81" viewBox="0 0 80 81" fill="none" xmlns="http://www.w3.org/2000/svg">
<g clip-path="url(#clip0)">
<path d="M75.9194 9.4051H70.6278V5.16119C70.6278 2.8465 68.7414 0.963379 66.423 0.963379H12.8988C10.5827 0.963379 8.69828 2.8465 8.69828 5.16119V9.4051H4.08063C1.83062 9.4051 0 11.2346 0 13.4834V29.4678C0 30.3306 0.699688 31.0303 1.5625 31.0303C2.42531 31.0303 3.125 30.3306 3.125 29.4678V13.4834C3.125 12.9667 3.56266 12.5301 4.08063 12.5301H8.69828V52.9471H3.125V43.4988C3.125 42.636 2.42531 41.9363 1.5625 41.9363C0.699688 41.9363 0 42.636 0 43.4988V59.4834C0 61.7321 1.83062 63.5617 4.08063 63.5617H26.8237L23.6761 69.937H21.1138C18.0716 69.937 15.5966 72.4103 15.5966 75.4503V79.4009C15.5966 80.2637 16.2962 80.9634 17.1591 80.9634H62.8408C63.7036 80.9634 64.4033 80.2637 64.4033 79.4009V75.4503C64.4033 72.4103 61.9283 69.937 58.8861 69.937H56.3234L53.1728 63.5617H75.9192C78.1692 63.5617 79.9998 61.7321 79.9998 59.4834V13.4834C80 11.2346 78.1694 9.4051 75.9194 9.4051ZM11.8233 5.16119C11.8233 4.57963 12.3158 4.08838 12.8988 4.08838H66.4231C67.0084 4.08838 67.5028 4.57979 67.5028 5.16119V13.5373H11.8233V5.16119ZM11.8233 16.6624H67.5028V52.9473H11.8233V16.6624ZM61.2784 75.4503V77.8384H18.7216V75.4503C18.7216 74.1332 19.7947 73.062 21.1138 73.062H58.8863C60.2052 73.062 61.2784 74.1332 61.2784 75.4503ZM52.8377 69.937H27.1613L30.3089 63.5617H49.6872L52.8377 69.937ZM76.875 59.4834C76.875 60.0001 76.4373 60.4367 75.9194 60.4367H4.08063C3.56266 60.4367 3.125 60.0001 3.125 59.4834V56.0721H76.875V59.4834ZM76.875 52.9471H70.6278V12.5301H75.9194C76.4373 12.5301 76.875 12.9667 76.875 13.4834V52.9471Z" fill="#35C5D4"/>
<path d="M55.4104 7.24829H55.4015C54.5387 7.24829 53.8434 7.94798 53.8434 8.81079C53.8434 9.6736 54.5474 10.3733 55.4103 10.3733C56.2731 10.3733 56.9728 9.6736 56.9728 8.81079C56.9728 7.94798 56.2732 7.24829 55.4104 7.24829Z" fill="#35C5D4"/>
<path d="M61.8611 7.24829H61.8521C60.9893 7.24829 60.2939 7.94798 60.2939 8.81079C60.2939 9.6736 60.9982 10.3733 61.861 10.3733C62.7238 10.3733 63.4235 9.6736 63.4235 8.81079C63.4235 7.94798 62.7241 7.24829 61.8611 7.24829Z" fill="#35C5D4"/>
<path d="M48.9599 7.24829H48.951C48.0881 7.24829 47.3928 7.94798 47.3928 8.81079C47.3928 9.6736 48.0969 10.3733 48.9597 10.3733C49.8225 10.3733 50.5222 9.6736 50.5222 8.81079C50.5222 7.94798 49.8227 7.24829 48.9599 7.24829Z" fill="#35C5D4"/>
<path d="M35.4248 7.24829H17.465C16.6022 7.24829 15.9025 7.94798 15.9025 8.81079C15.9025 9.6736 16.6022 10.3733 17.465 10.3733H35.4247C36.2875 10.3733 36.9872 9.6736 36.9872 8.81079C36.9872 7.94798 36.2876 7.24829 35.4248 7.24829Z" fill="#35C5D4"/>
<path d="M53.0784 32.7886H62.0028C62.518 32.7886 63.0002 32.5347 63.2914 32.1097C63.5828 31.6847 63.6461 31.1435 63.4603 30.663C61.7556 26.2503 57.432 23.2856 52.7017 23.2856C48.3358 23.2856 44.3164 25.8085 42.3811 29.6635H36.9416C35.0102 25.8085 30.9924 23.2856 26.6245 23.2856C21.8889 23.2856 17.5653 26.251 15.8652 30.6644C15.68 31.1449 15.7438 31.6858 16.0352 32.1103C16.3264 32.5349 16.8083 32.7886 17.3233 32.7886H25.0597C26.1733 32.7886 27.0794 33.693 27.0794 34.8047C27.0794 35.9141 26.1733 36.8164 25.0597 36.8164H17.3233C16.8084 36.8164 16.3267 37.07 16.0353 37.4944C15.7439 37.9188 15.6802 38.4595 15.865 38.94C17.5641 43.3566 21.8881 46.3238 26.6245 46.3238C30.9933 46.3238 35.0113 43.7991 36.942 39.9414H42.3808C44.3155 43.7991 48.3349 46.3238 52.7019 46.3238C57.4331 46.3238 61.7569 43.357 63.4606 38.9414C63.6463 38.461 63.5828 37.9199 63.2914 37.495C63.0002 37.0703 62.5181 36.8164 62.003 36.8164H53.0786C51.9675 36.8164 51.0634 35.9141 51.0634 34.8047C51.0633 33.693 51.9674 32.7886 53.0784 32.7886ZM53.0784 39.9414H59.3391C57.7688 41.9514 55.3209 43.1988 52.7017 43.1988C49.25 43.1988 46.0961 41.0358 44.8536 37.8164C44.6211 37.2139 44.0419 36.8166 43.3959 36.8166H35.9256C35.2791 36.8166 34.6994 37.2147 34.4674 37.818C33.2291 41.0366 30.0772 43.1989 26.6244 43.1989C24.002 43.1989 21.5531 41.9516 19.9845 39.9416H25.0594C27.8961 39.9416 30.2041 37.6372 30.2041 34.8049C30.2041 31.97 27.8961 29.6638 25.0594 29.6638H19.9861C21.5552 27.6564 24.0031 26.411 26.6242 26.411C30.0767 26.411 33.2288 28.5717 34.4674 31.788C34.6997 32.391 35.2792 32.7888 35.9255 32.7888H43.3958C44.0414 32.7888 44.6206 32.3917 44.8533 31.7894C46.0963 28.5722 49.2503 26.4108 52.7016 26.4108C55.3195 26.4108 57.7666 27.6564 59.3374 29.6636H53.0783C50.2439 29.6636 47.9381 31.97 47.9381 34.8047C47.9383 37.6371 50.2441 39.9414 53.0784 39.9414Z" fill="#35C5D4"/>
<path d="M1.5625 38.0503C2.42531 38.0503 3.125 37.3462 3.125 36.4834C3.125 35.6206 2.42531 34.9209 1.5625 34.9209C0.699688 34.9209 0 35.6206 0 36.4834V36.4923C0 37.3551 0.699688 38.0503 1.5625 38.0503Z" fill="#35C5D4"/>
</g>
<defs>
<clipPath id="clip0">
<rect width="80" height="80" fill="white" transform="translate(0 0.963379)"/>
</clipPath>
</defs>
</svg>
