<svg width="80" height="80" viewBox="0 0 80 80" fill="none" xmlns="http://www.w3.org/2000/svg">
<path d="M75.9194 8.44172H70.6278V4.19781C70.6278 1.88312 68.7414 0 66.423 0H12.8988C10.5827 0 8.69828 1.88312 8.69828 4.19781V8.44172H4.08063C1.83062 8.44172 0 10.2712 0 12.52V28.5044C0 29.3672 0.699688 30.0669 1.5625 30.0669C2.42531 30.0669 3.125 29.3672 3.125 28.5044V12.52C3.125 12.0033 3.56266 11.5667 4.08063 11.5667H8.69828V51.9838H3.125V42.5355C3.125 41.6727 2.42531 40.973 1.5625 40.973C0.699688 40.973 0 41.6727 0 42.5355V58.52C0 60.7688 1.83062 62.5983 4.08063 62.5983H26.8237L23.6761 68.9736H21.1138C18.0716 68.9736 15.5966 71.4469 15.5966 74.4869V78.4375C15.5966 79.3003 16.2962 80 17.1591 80H62.8408C63.7036 80 64.4033 79.3003 64.4033 78.4375V74.4869C64.4033 71.4469 61.9283 68.9736 58.8861 68.9736H56.3234L53.1728 62.5983H75.9192C78.1692 62.5983 79.9998 60.7688 79.9998 58.52V12.52C80 10.2712 78.1694 8.44172 75.9194 8.44172ZM11.8233 4.19781C11.8233 3.61625 12.3158 3.125 12.8988 3.125H66.4231C67.0084 3.125 67.5028 3.61641 67.5028 4.19781V12.5739H11.8233V4.19781ZM11.8233 15.6991H67.5028V51.9839H11.8233V15.6991ZM61.2784 74.4869V76.875H18.7216V74.4869C18.7216 73.1698 19.7947 72.0986 21.1138 72.0986H58.8863C60.2052 72.0986 61.2784 73.1698 61.2784 74.4869ZM52.8377 68.9736H27.1613L30.3089 62.5983H49.6872L52.8377 68.9736ZM76.875 58.52C76.875 59.0367 76.4373 59.4733 75.9194 59.4733H4.08063C3.56266 59.4733 3.125 59.0367 3.125 58.52V55.1088H76.875V58.52ZM76.875 51.9838H70.6278V11.5667H75.9194C76.4373 11.5667 76.875 12.0033 76.875 12.52V51.9838Z" fill="#35C5D4"/>
<path d="M55.4105 6.28491H55.4016C54.5388 6.28491 53.8435 6.9846 53.8435 7.84741C53.8435 8.71022 54.5476 9.40991 55.4104 9.40991C56.2732 9.40991 56.9729 8.71022 56.9729 7.84741C56.9729 6.9846 56.2734 6.28491 55.4105 6.28491Z" fill="#35C5D4"/>
<path d="M61.8611 6.28491H61.8521C60.9893 6.28491 60.2939 6.9846 60.2939 7.84741C60.2939 8.71022 60.9982 9.40991 61.861 9.40991C62.7238 9.40991 63.4235 8.71022 63.4235 7.84741C63.4235 6.9846 62.7241 6.28491 61.8611 6.28491Z" fill="#35C5D4"/>
<path d="M48.9599 6.28491H48.951C48.0881 6.28491 47.3928 6.9846 47.3928 7.84741C47.3928 8.71022 48.0969 9.40991 48.9597 9.40991C49.8225 9.40991 50.5222 8.71022 50.5222 7.84741C50.5222 6.9846 49.8227 6.28491 48.9599 6.28491Z" fill="#35C5D4"/>
<path d="M35.4249 6.28491H17.4651C16.6023 6.28491 15.9026 6.9846 15.9026 7.84741C15.9026 8.71022 16.6023 9.40991 17.4651 9.40991H35.4248C36.2876 9.40991 36.9873 8.71022 36.9873 7.84741C36.9873 6.9846 36.2877 6.28491 35.4249 6.28491Z" fill="#35C5D4"/>
<path d="M53.0784 31.8252H62.0028C62.518 31.8252 63.0002 31.5713 63.2914 31.1463C63.5828 30.7213 63.6461 30.1801 63.4603 29.6996C61.7556 25.287 57.432 22.3223 52.7017 22.3223C48.3358 22.3223 44.3164 24.8451 42.3811 28.7001H36.9416C35.0102 24.8451 30.9924 22.3223 26.6245 22.3223C21.8889 22.3223 17.5653 25.2876 15.8652 29.701C15.68 30.1815 15.7438 30.7224 16.0352 31.147C16.3264 31.5715 16.8083 31.8252 17.3233 31.8252H25.0597C26.1733 31.8252 27.0794 32.7296 27.0794 33.8413C27.0794 34.9507 26.1733 35.853 25.0597 35.853H17.3233C16.8084 35.853 16.3267 36.1066 16.0353 36.531C15.7439 36.9554 15.6802 37.4962 15.865 37.9766C17.5641 42.3932 21.8881 45.3604 26.6245 45.3604C30.9933 45.3604 35.0113 42.8357 36.942 38.978H42.3808C44.3155 42.8357 48.3349 45.3604 52.7019 45.3604C57.4331 45.3604 61.7569 42.3937 63.4606 37.978C63.6463 37.4976 63.5828 36.9565 63.2914 36.5316C63.0002 36.107 62.5181 35.853 62.003 35.853H53.0786C51.9675 35.853 51.0634 34.9507 51.0634 33.8413C51.0633 32.7296 51.9674 31.8252 53.0784 31.8252ZM53.0784 38.978H59.3391C57.7688 40.988 55.3209 42.2354 52.7017 42.2354C49.25 42.2354 46.0961 40.0724 44.8536 36.853C44.6211 36.2505 44.0419 35.8532 43.3959 35.8532H35.9256C35.2791 35.8532 34.6994 36.2513 34.4674 36.8546C33.2291 40.0732 30.0772 42.2355 26.6244 42.2355C24.002 42.2355 21.5531 40.9882 19.9845 38.9782H25.0594C27.8961 38.9782 30.2041 36.6738 30.2041 33.8415C30.2041 31.0066 27.8961 28.7004 25.0594 28.7004H19.9861C21.5552 26.693 24.0031 25.4476 26.6242 25.4476C30.0767 25.4476 33.2288 27.6084 34.4674 30.8246C34.6997 31.4276 35.2792 31.8254 35.9255 31.8254H43.3958C44.0414 31.8254 44.6206 31.4284 44.8533 30.826C46.0963 27.6088 49.2503 25.4474 52.7016 25.4474C55.3195 25.4474 57.7666 26.693 59.3374 28.7002H53.0783C50.2439 28.7002 47.9381 31.0066 47.9381 33.8413C47.9383 36.6737 50.2441 38.978 53.0784 38.978Z" fill="#35C5D4"/>
<path d="M1.5625 37.0869C2.42531 37.0869 3.125 36.3828 3.125 35.52C3.125 34.6572 2.42531 33.9575 1.5625 33.9575C0.699688 33.9575 0 34.6572 0 35.52V35.5289C0 36.3917 0.699688 37.0869 1.5625 37.0869Z" fill="#35C5D4"/>
</svg>
