<svg width="62" height="80" viewBox="0 0 62 80" fill="none" xmlns="http://www.w3.org/2000/svg">
<path d="M49.1342 56.5975C48.4874 56.5975 47.9633 57.1218 47.9633 57.7685V71.9133C47.9633 75.081 45.386 77.6582 42.2183 77.6582H8.40763C5.23975 77.6582 2.66264 75.081 2.66264 71.9133V8.08683C2.66264 4.91895 5.23991 2.34184 8.40763 2.34184H42.2181C45.3859 2.34184 47.9631 4.91895 47.9631 8.08683V15.7109C47.9631 16.3576 48.4872 16.8818 49.1341 16.8818C49.7809 16.8818 50.305 16.3576 50.305 15.7109V8.08683C50.3051 3.62766 46.6773 0 42.2183 0H8.40763C3.94862 0 0.320801 3.62766 0.320801 8.08683V71.9133C0.320801 76.3723 3.94846 80 8.40763 80H42.2181C46.6773 80 50.305 76.3723 50.305 71.9133V57.7685C50.3051 57.1218 49.7809 56.5975 49.1342 56.5975Z" fill="#35C5D4"/>
<path d="M44.4506 16.8421C45.0975 16.8421 45.6216 16.3178 45.6216 15.6712V8.08675C45.6216 6.21016 44.095 4.68359 42.2184 4.68359H38.3701C37.6754 4.68359 37.05 5.12277 36.8138 5.77692L36.6245 6.30165C36.3537 7.05322 35.6347 7.55828 34.8358 7.55828H24.1641C23.5174 7.55828 22.9932 8.08254 22.9932 8.7292C22.9932 9.37586 23.5174 9.90012 24.1641 9.90012H34.8358C36.6188 9.90012 38.2229 8.77322 38.8276 7.09584L38.853 7.02543H42.2184C42.8035 7.02543 43.2797 7.50145 43.2797 8.08675V15.6713C43.2797 16.318 43.8038 16.8421 44.4506 16.8421Z" fill="#35C5D4"/>
<path d="M46.6353 19.0547C43.4694 19.0547 40.4397 20.0276 37.8743 21.8683C37.3489 22.2454 37.2284 22.977 37.6055 23.5023C37.9827 24.028 38.7144 24.148 39.2394 23.7711C41.4045 22.2177 43.962 21.3967 46.6353 21.3967C53.6392 21.3967 59.3376 27.095 59.3376 34.099C59.3376 38.8888 52.7943 46.7213 46.6707 52.4541C46.6501 52.4735 46.6201 52.4733 46.5998 52.4541C40.4762 46.7215 33.933 38.8893 33.933 34.099C33.933 31.5798 34.6693 29.1452 36.062 27.058C36.4211 26.5202 36.2759 25.7931 35.7381 25.4342C35.2004 25.0751 34.473 25.2203 34.1142 25.7581C32.4637 28.2313 31.5913 31.1155 31.5913 34.099C31.5913 37.1535 33.4915 41.0981 37.2392 45.823C40.1222 49.458 43.3386 52.6089 44.9994 54.1635C45.4581 54.593 46.0467 54.8078 46.6354 54.8078C47.224 54.8078 47.8127 54.593 48.2714 54.1637C49.9323 52.6087 53.149 49.4575 56.0317 45.823C59.7794 41.0979 61.6795 37.1534 61.6795 34.099C61.6794 25.8036 54.9307 19.0547 46.6353 19.0547Z" fill="#35C5D4"/>
<path d="M55.0455 34.0991C55.0455 29.4618 51.2727 25.689 46.6353 25.689C41.998 25.689 38.2253 29.4618 38.2253 34.0991C38.2253 38.7364 41.998 42.5091 46.6353 42.5091C51.2727 42.5091 55.0455 38.7364 55.0455 34.0991ZM40.5672 34.0991C40.5672 30.7531 43.2895 28.0308 46.6353 28.0308C49.9815 28.0308 52.7037 30.7531 52.7037 34.0991C52.7037 37.4452 49.9814 40.1673 46.6353 40.1673C43.2893 40.1673 40.5672 37.4452 40.5672 34.0991Z" fill="#35C5D4"/>
<path d="M33.3872 44.5894C32.9369 44.1252 32.1958 44.114 31.7315 44.5644L23.4391 52.6102C23.1777 52.8637 23.0311 53.2181 23.0372 53.5822C23.0433 53.9464 23.2013 54.2955 23.4706 54.54L43.1498 72.4215C42.9694 72.7508 42.6196 72.9746 42.2184 72.9746H37.9545L20.5408 57.1516C20.0248 56.6823 19.2286 56.6953 18.7287 57.181L7.34672 68.2245V62.7861L16.1178 54.2758C16.582 53.8256 16.5931 53.0842 16.1428 52.6202C15.6924 52.156 14.9513 52.1448 14.4871 52.5952L7.34672 59.5231V8.08684C7.34672 7.50154 7.82274 7.02552 8.40804 7.02552H11.9295L11.955 7.09609C12.5597 8.77347 14.1638 9.90036 15.9467 9.90036H19.1743C19.8209 9.90036 20.3452 9.3761 20.3452 8.72944C20.3452 8.08278 19.8209 7.55852 19.1743 7.55852H15.9467C15.1477 7.55852 14.4289 7.05362 14.1579 6.30189L13.9688 5.77732C13.7332 5.12332 13.1076 4.68384 12.4124 4.68384H8.40804C6.53145 4.68384 5.00488 6.2104 5.00488 8.087V71.9135C5.00488 73.7901 6.53145 75.3166 8.40804 75.3166H42.2186C44.0952 75.3166 45.6217 73.7901 45.6217 71.9135V57.9055C45.6217 57.2589 45.0976 56.7346 44.4508 56.7346C43.804 56.7346 43.2799 57.2589 43.2799 57.9055V69.3755L25.8479 53.536L33.3622 46.2452C33.8264 45.795 33.8376 45.0535 33.3872 44.5894ZM7.34641 71.9133V71.4874L19.6729 59.5275L34.4721 72.9746H8.40773C7.82258 72.9745 7.34641 72.4985 7.34641 71.9133Z" fill="#35C5D4"/>
<path d="M28.5469 38.9529L18.0684 49.1197C17.6043 49.57 17.5932 50.3114 18.0434 50.7754C18.2731 51.0121 18.5783 51.1309 18.8838 51.1309C19.1775 51.1309 19.4716 51.021 19.6991 50.8004L30.1776 40.6335C30.6417 40.1833 30.653 39.4418 30.2026 38.9778C29.7525 38.5138 29.0112 38.5025 28.5469 38.9529Z" fill="#35C5D4"/>
<path d="M17.7689 36.0869C18.4155 36.0869 18.9398 35.5627 18.9398 34.916V29.2778C21.173 28.7476 22.8397 26.7378 22.8397 24.3448C22.8397 21.5486 20.565 19.2739 17.7689 19.2739C14.9727 19.2739 12.698 21.5486 12.698 24.3448C12.698 26.7378 14.3648 28.7476 16.5979 29.2778V34.916C16.5979 35.5627 17.1222 36.0869 17.7689 36.0869ZM15.0398 24.3448C15.0398 22.8399 16.2642 21.6158 17.7689 21.6158C19.2736 21.6158 20.4979 22.8399 20.4979 24.3448C20.4979 25.8497 19.2737 27.0738 17.7689 27.0738C16.264 27.0738 15.0398 25.8497 15.0398 24.3448Z" fill="#35C5D4"/>
</svg>
