<svg width="87" height="87" viewBox="0 0 87 87" fill="none" xmlns="http://www.w3.org/2000/svg">
<path d="M43.5 69.3281C42.4246 69.3281 41.3733 69.647 40.4791 70.2445C39.5849 70.842 38.888 71.6912 38.4764 72.6848C38.0649 73.6784 37.9572 74.7717 38.167 75.8264C38.3768 76.8812 38.8947 77.8501 39.6551 78.6105C40.4156 79.371 41.3844 79.8888 42.4392 80.0986C43.494 80.3085 44.5873 80.2008 45.5809 79.7892C46.5744 79.3777 47.4236 78.6807 48.0211 77.7865C48.6186 76.8924 48.9375 75.8411 48.9375 74.7656C48.9359 73.324 48.3625 71.9419 47.3431 70.9225C46.3237 69.9031 44.9416 69.3297 43.5 69.3281ZM43.5 77.4844C42.9623 77.4844 42.4366 77.3249 41.9895 77.0262C41.5425 76.7274 41.194 76.3028 40.9882 75.806C40.7824 75.3093 40.7286 74.7626 40.8335 74.2352C40.9384 73.7078 41.1973 73.2234 41.5776 72.8432C41.9578 72.463 42.4422 72.204 42.9696 72.0991C43.497 71.9942 44.0436 72.0481 44.5404 72.2538C45.0372 72.4596 45.4618 72.8081 45.7606 73.2552C46.0593 73.7023 46.2188 74.2279 46.2188 74.7656C46.2179 75.4864 45.9312 76.1775 45.4215 76.6871C44.9118 77.1968 44.2208 77.4835 43.5 77.4844Z" fill="#35C5D4"/>
<path d="M40.7812 10.875H46.2188C46.5793 10.875 46.925 10.7318 47.18 10.4768C47.4349 10.2219 47.5781 9.87615 47.5781 9.51562C47.5781 9.1551 47.4349 8.80933 47.18 8.5544C46.925 8.29947 46.5793 8.15625 46.2188 8.15625H40.7812C40.4207 8.15625 40.075 8.29947 39.82 8.5544C39.5651 8.80933 39.4219 9.1551 39.4219 9.51562C39.4219 9.87615 39.5651 10.2219 39.82 10.4768C40.075 10.7318 40.4207 10.875 40.7812 10.875Z" fill="#35C5D4"/>
<path d="M51.6563 10.875H53.0156C53.3762 10.875 53.7219 10.7318 53.9769 10.4768C54.2318 10.2219 54.375 9.87615 54.375 9.51562C54.375 9.1551 54.2318 8.80933 53.9769 8.5544C53.7219 8.29947 53.3762 8.15625 53.0156 8.15625H51.6563C51.2957 8.15625 50.95 8.29947 50.695 8.5544C50.4401 8.80933 50.2969 9.1551 50.2969 9.51562C50.2969 9.87615 50.4401 10.2219 50.695 10.4768C50.95 10.7318 51.2957 10.875 51.6563 10.875Z" fill="#35C5D4"/>
<path d="M29.5081 38.48L36.6507 31.3373C37.1025 30.8907 37.4616 30.3592 37.7073 29.7733C37.9529 29.1875 38.0803 28.5588 38.0822 27.9235C38.084 27.2882 37.9603 26.6588 37.718 26.0716C37.4757 25.4843 37.1198 24.9507 36.6705 24.5015C36.2213 24.0522 35.6877 23.6963 35.1005 23.454C34.5132 23.2117 33.8838 23.0879 33.2485 23.0897C32.6132 23.0916 31.9846 23.219 31.3987 23.4646C30.8128 23.7103 30.2813 24.0693 29.8347 24.5211L28.5468 25.8089L27.259 24.5211C26.3533 23.6258 25.1301 23.1254 23.8566 23.1291C22.5832 23.1328 21.3629 23.6403 20.4624 24.5408C19.562 25.4413 19.0545 26.6616 19.0508 27.935C19.0471 29.2085 19.5476 30.4317 20.4429 31.3373L27.5856 38.48C27.7118 38.6062 27.8617 38.7064 28.0266 38.7747C28.1915 38.843 28.3683 38.8782 28.5468 38.8782C28.7253 38.8782 28.9021 38.843 29.0671 38.7747C29.232 38.7064 29.3818 38.6062 29.5081 38.48ZM22.3654 29.4147C21.9714 29.0207 21.7501 28.4863 21.7501 27.9291C21.7501 27.3719 21.9715 26.8375 22.3655 26.4435C22.7595 26.0495 23.2939 25.8282 23.8511 25.8282C24.4083 25.8282 24.9427 26.0496 25.3367 26.4436L27.5856 28.6925C27.7118 28.8187 27.8617 28.9189 28.0266 28.9872C28.1915 29.0555 28.3683 29.0907 28.5468 29.0907C28.7253 29.0907 28.9021 29.0555 29.0671 28.9872C29.232 28.9189 29.3818 28.8187 29.5081 28.6925L31.7572 26.4434C31.9523 26.2483 32.1839 26.0936 32.4388 25.988C32.6937 25.8824 32.9669 25.8281 33.2428 25.8281C33.5187 25.8281 33.7919 25.8825 34.0467 25.9881C34.3016 26.0936 34.5332 26.2484 34.7283 26.4435C34.9234 26.6386 35.0782 26.8702 35.1837 27.1251C35.2893 27.38 35.3436 27.6532 35.3436 27.9291C35.3436 28.205 35.2893 28.4782 35.1837 28.7331C35.0781 28.988 34.9233 29.2196 34.7282 29.4147L28.5468 35.5963L22.3654 29.4147Z" fill="#35C5D4"/>
<path d="M65.2499 39.7741V8.49609C65.2482 6.96437 64.639 5.49587 63.5559 4.41278C62.4728 3.32969 61.0043 2.72046 59.4726 2.71875H27.5273C25.9956 2.72046 24.5271 3.32969 23.444 4.41278C22.3609 5.49587 21.7516 6.96437 21.7499 8.49609V15.079C19.4674 16.1251 17.4571 17.6841 15.8758 19.6344C14.2944 21.5848 13.1847 23.8738 12.633 26.3233C12.0813 28.7728 12.1025 31.3166 12.6951 33.7566C13.2876 36.1965 14.4354 38.4668 16.0491 40.3904L13.7874 44.16C13.6636 44.3663 13.5968 44.6017 13.5938 44.8422C13.5907 45.0828 13.6516 45.3198 13.7701 45.5291C13.8886 45.7385 14.0606 45.9126 14.2684 46.0338C14.4762 46.1549 14.7125 46.2188 14.9531 46.2188H21.7499V78.5039C21.7516 80.0356 22.3609 81.5041 23.444 82.5872C24.5271 83.6703 25.9956 84.2795 27.5273 84.2812H59.4726C61.0043 84.2795 62.4728 83.6703 63.5559 82.5872C64.639 81.5041 65.2482 80.0356 65.2499 78.5039V69.3281H69.3281C69.5686 69.3281 69.8049 69.2643 70.0127 69.1431C70.2205 69.022 70.3925 68.8479 70.511 68.6385C70.6295 68.4292 70.6904 68.1921 70.6873 67.9516C70.6843 67.7111 70.6175 67.4756 70.4937 67.2694L68.2321 63.4998C69.6751 61.7802 70.7474 59.7811 71.3819 57.6278C72.0164 55.4745 72.1994 53.2134 71.9195 50.9861C71.6395 48.7588 70.9026 46.6132 69.755 44.684C68.6073 42.7547 67.0736 41.0831 65.2499 39.7741ZM24.4687 8.49609C24.4696 7.68519 24.7922 6.90778 25.3656 6.33438C25.939 5.76099 26.7164 5.43844 27.5273 5.4375H59.4726C60.2835 5.43844 61.0609 5.76099 61.6343 6.33438C62.2077 6.90778 62.5302 7.68519 62.5312 8.49609V14.9531H35.0625C31.7241 13.4982 27.9951 13.2014 24.4687 14.11V8.49609ZM62.5312 17.6719V38.1884C58.9734 36.5551 54.9467 36.2563 51.1868 37.3465C47.4269 38.4368 44.1847 40.8434 42.0526 44.1266C39.9204 47.4098 39.0407 51.3506 39.574 55.2289C40.1073 59.1072 42.0181 62.6642 44.9573 65.25H24.4687V46.2188H28.5468C31.8611 46.2204 35.0971 45.2119 37.8238 43.3278C40.5504 41.4437 42.6381 38.7734 43.8086 35.6727C44.9792 32.572 45.177 29.1882 44.3758 25.9723C43.5745 22.7563 41.8122 19.8609 39.3238 17.6719H62.5312ZM17.3539 43.5L18.8959 40.9301C19.0491 40.6747 19.1143 40.3761 19.0813 40.0802C19.0483 39.7842 18.9191 39.5073 18.7134 39.2919C16.5514 37.0267 15.2377 34.0845 14.9944 30.9625C14.7511 27.8406 15.593 24.7304 17.378 22.1575C19.163 19.5847 21.7815 17.707 24.7909 16.8417C27.8004 15.9765 31.0164 16.1768 33.8952 17.4088C36.7741 18.6408 39.1394 20.8289 40.5913 23.6033C42.0432 26.3778 42.4927 29.5684 41.8639 32.6361C41.235 35.7037 39.5664 38.4601 37.14 40.4396C34.7136 42.419 31.6782 43.5001 28.5468 43.5H17.3539ZM62.5312 78.5039C62.5302 79.3148 62.2077 80.0922 61.6343 80.6656C61.0609 81.239 60.2835 81.5616 59.4726 81.5625H27.5273C26.7164 81.5616 25.939 81.239 25.3656 80.6656C24.7922 80.0922 24.4696 79.3148 24.4687 78.5039V67.9688H49.2187C51.2732 68.8675 53.4918 69.3304 55.7343 69.3281H62.5312V78.5039ZM65.3859 64.0395L66.9272 66.6094H55.7343C52.6029 66.6094 49.5675 65.5284 47.1411 63.5489C44.7147 61.5695 43.0461 58.813 42.4172 55.7454C41.7884 52.6778 42.2379 49.4872 43.6898 46.7127C45.1418 43.9383 47.507 41.7501 50.3859 40.5182C53.2647 39.2862 56.4807 39.0859 59.4902 39.9511C62.4997 40.8163 65.1181 42.694 66.9031 45.2669C68.6881 47.8398 69.53 50.95 69.2867 54.0719C69.0434 57.1938 67.7297 60.136 65.5677 62.4013C65.3621 62.6167 65.233 62.8937 65.2002 63.1897C65.1673 63.4856 65.2326 63.7842 65.3859 64.0395Z" fill="#35C5D4"/>
<path d="M55.7344 57.0938C56.4851 57.0938 57.0938 56.4851 57.0938 55.7344C57.0938 54.9836 56.4851 54.375 55.7344 54.375C54.9836 54.375 54.375 54.9836 54.375 55.7344C54.375 56.4851 54.9836 57.0938 55.7344 57.0938Z" fill="#35C5D4"/>
<path d="M50.2969 57.0938C51.0476 57.0938 51.6562 56.4851 51.6562 55.7344C51.6562 54.9836 51.0476 54.375 50.2969 54.375C49.5461 54.375 48.9375 54.9836 48.9375 55.7344C48.9375 56.4851 49.5461 57.0938 50.2969 57.0938Z" fill="#35C5D4"/>
<path d="M61.1719 57.0938C61.9226 57.0938 62.5312 56.4851 62.5312 55.7344C62.5312 54.9836 61.9226 54.375 61.1719 54.375C60.4211 54.375 59.8125 54.9836 59.8125 55.7344C59.8125 56.4851 60.4211 57.0938 61.1719 57.0938Z" fill="#35C5D4"/>
</svg>
