<svg width="77" height="78" viewBox="0 0 77 78" fill="none" xmlns="http://www.w3.org/2000/svg">
<g clip-path="url(#clip0)">
<path d="M57.9407 19.2989L26.2731 38.803C24.4811 39.9093 23.633 42.0943 24.2104 44.1153L27.6345 56.1465C27.927 57.1723 28.8398 57.8542 29.8902 57.8542C29.9487 57.8542 30.0078 57.8521 30.067 57.8477C31.1898 57.7662 32.0784 56.9299 32.2277 55.8152L33.118 49.2182C33.238 48.3306 33.6657 47.5049 34.3213 46.8947L60.4539 22.603C61.2436 21.8707 61.348 20.6716 60.6972 19.814C60.0454 18.9555 58.8611 18.7336 57.9407 19.2989ZM32.2318 44.6486C31.0575 45.7416 30.2925 47.2186 30.0777 48.8076C29.9801 49.5313 28.9619 49.6043 28.7621 48.9019L27.1604 43.2741C26.9585 42.5667 27.2559 41.8017 27.8831 41.4146L29.1685 40.6229C31.783 39.0126 34.4808 42.558 32.2318 44.6486Z" fill="#35C5D4"/>
<path d="M75.7473 6.58527C74.7579 5.74669 73.3926 5.51584 72.1833 5.98295L2.26793 32.9543C0.883286 33.4883 -0.00702658 34.7921 4.17809e-05 36.2757C0.00726053 37.7606 0.910657 39.0572 2.30342 39.579C12.6044 43.4236 20.5454 51.8202 23.8101 62.3194L25.0047 66.1612C25.3545 67.2874 26.2375 68.1626 27.3663 68.5021C28.4946 68.8414 29.713 68.5988 30.6238 67.854L40.1195 60.1129C40.5754 59.7411 41.2266 59.7228 41.7028 60.0685L58.8297 72.503C59.4459 72.9508 60.173 73.1814 60.9086 73.1814C61.3394 73.1814 61.7731 73.1023 62.1894 72.9414C63.3153 72.506 64.134 71.5409 64.3791 70.3602L76.9261 10.0071C77.1895 8.7363 76.7379 7.4252 75.7473 6.58527ZM73.9225 9.38374L61.3757 69.7367C61.3302 69.9548 61.1732 70.0454 61.0836 70.0802C60.9934 70.1151 60.8152 70.1537 60.6329 70.0211L43.5053 57.586C42.7397 57.0302 41.8395 56.7542 40.9409 56.7542C39.9606 56.7542 38.9817 57.0828 38.1817 57.7346L28.6839 65.4775C28.5149 65.6158 28.3394 65.5912 28.25 65.5643C28.1601 65.5372 27.9996 65.4605 27.9343 65.2505L21.3405 44.0446C21.1996 43.5914 20.8567 43.229 20.4121 43.063L3.37812 36.7055C3.12305 36.61 3.06876 36.411 3.06801 36.2608C3.06726 36.1119 3.1196 35.9138 3.37225 35.8164L73.2878 8.84519C73.2881 8.84504 73.2886 8.84489 73.289 8.84474C73.5161 8.75706 73.6841 8.85782 73.7641 8.9255C73.8444 8.99392 73.9722 9.14432 73.9225 9.38374Z" fill="#35C5D4"/>
<path d="M64.2891 38.8832C63.4611 38.7033 62.6445 39.2289 62.4648 40.0568L62.2316 41.1306C62.0519 41.9585 62.5774 42.7753 63.4053 42.955C63.5149 42.9788 63.6243 42.9902 63.7322 42.9902C64.4383 42.9902 65.0737 42.4996 65.2298 41.7815L65.4629 40.7077C65.6425 39.8798 65.1169 39.063 64.2891 38.8832Z" fill="#35C5D4"/>
<path d="M62.7552 45.9486C61.9263 45.7688 61.1102 46.2943 60.9307 47.1222L57.4027 63.3721C57.2229 64.2 57.7484 65.0167 58.5762 65.1965C58.6859 65.2202 58.7953 65.2317 58.9031 65.2317C59.6093 65.2317 60.2446 64.7411 60.4007 64.023L63.9287 47.7729C64.1084 46.945 63.583 46.1283 62.7552 45.9486Z" fill="#35C5D4"/>
</g>
<defs>
<clipPath id="clip0">
<rect y="0.963379" width="77" height="77" fill="white"/>
</clipPath>
</defs>
</svg>
