<svg width="80" height="81" viewBox="0 0 80 81" fill="none" xmlns="http://www.w3.org/2000/svg">
<g clip-path="url(#clip0)">
<path d="M75.9194 8.71291H43.1345L40.5019 6.08041C39.928 5.50666 39.1633 5.19057 38.3486 5.19057C37.5339 5.19057 36.7692 5.50666 36.1931 6.0826L35.9498 6.32682C34.9094 5.76713 33.8214 5.31619 32.6958 4.97791V4.63166C32.6958 2.95354 31.3306 1.58838 29.6523 1.58838H25.4983C23.8203 1.58838 22.455 2.95354 22.455 4.63166V4.97791C21.3294 5.31619 20.2413 5.76729 19.2009 6.32682L18.9556 6.08041C18.3817 5.5065 17.617 5.19041 16.8022 5.19041C15.9875 5.19041 15.2228 5.5065 14.6489 6.08025L12.0166 8.71291H4.08063C1.83062 8.71291 0 10.5435 0 12.7935V58.8389C0 61.0888 1.83062 62.9195 4.08063 62.9195H26.8247L23.6755 69.3042H21.1136C18.0714 69.3042 15.5964 71.779 15.5964 74.8212V78.7759C15.5964 79.6388 16.2961 80.3384 17.1589 80.3384H55.9423H73.9375C77.2805 80.3384 80 77.3363 80 73.6463V36.2995V12.7935C80 10.5435 78.1694 8.71291 75.9194 8.71291ZM13.3366 18.7281C13.7039 17.1009 14.3423 15.5613 15.2341 14.1523C15.6244 13.5357 15.5359 12.731 15.0211 12.214L13.98 11.1688L16.8022 8.34666L17.8386 9.38744C18.3555 9.90619 19.163 9.99666 19.7816 9.6051C21.1984 8.70822 22.7384 8.0701 24.3583 7.70838C25.0723 7.54885 25.5802 6.9151 25.5802 6.18338V4.71338H29.5708V6.18338C29.5708 6.9151 30.0786 7.54885 30.7927 7.70838C32.4125 8.0701 33.9523 8.70822 35.3692 9.6051C35.988 9.99666 36.7955 9.90619 37.312 9.38744L38.3488 8.34666L41.1709 11.1688L40.1298 12.214C39.6148 12.731 39.5264 13.5357 39.9167 14.1523C40.8084 15.5613 41.4469 17.1009 41.8142 18.7281C41.975 19.4406 42.608 19.9465 43.3384 19.9465H44.8084V23.9371H43.3384C42.608 23.9371 41.975 24.4431 41.8142 25.1556C41.4459 26.7873 40.8075 28.3284 39.9167 29.7357C39.5264 30.3523 39.6148 31.157 40.1298 31.674L41.1686 32.717L38.3486 35.5371L37.3098 34.4984C36.7928 33.9815 35.9869 33.8921 35.3692 34.2831C33.9525 35.1798 32.4127 35.8181 30.7927 36.1798C30.0786 36.3393 29.5708 36.9731 29.5708 37.7048V39.1746H25.5802V37.7048C25.5802 36.9731 25.0723 36.3393 24.3583 36.1798C22.7383 35.8181 21.1983 35.1799 19.7816 34.2831C19.1641 33.8923 18.3581 33.9817 17.8409 34.4985L16.8023 35.5371L13.9823 32.717L15.0211 31.674C15.5359 31.157 15.6244 30.3524 15.2341 29.7357C14.3434 28.3284 13.705 26.7873 13.3366 25.1556C13.1758 24.4431 12.5428 23.9371 11.8123 23.9371H10.3425V19.9465H11.8125C12.5428 19.9465 13.1758 19.4406 13.3366 18.7281ZM3.125 58.8389V55.4228H49.88V59.7946H4.08063C3.55375 59.7946 3.125 59.3659 3.125 58.8389ZM30.3094 62.9196H49.8802V69.3043H27.1602L30.3094 62.9196ZM18.7216 74.8212C18.7216 73.5023 19.7947 72.4292 21.1138 72.4292H24.6392C24.6414 72.4292 24.6437 72.4295 24.6459 72.4295C24.6478 72.4295 24.6495 72.4292 24.6514 72.4292H49.88V73.6463C49.88 74.957 50.2245 76.1799 50.8167 77.2134H18.7214V74.8212H18.7216ZM76.875 73.6463C76.875 75.5799 75.53 77.2134 73.9377 77.2134H55.9425C54.3503 77.2134 53.005 75.5799 53.005 73.6463V36.2995C53.005 34.3659 54.3502 32.7324 55.9425 32.7324H57.5498V36.2462C57.5498 37.956 58.9428 39.3471 60.6552 39.3471H69.2248C70.9372 39.3471 72.3302 37.956 72.3302 36.2462V32.7324H73.9377C75.5298 32.7324 76.875 34.3659 76.875 36.2995V73.6463ZM60.6748 36.2221V32.7326H69.2052V36.2221H60.6748ZM76.875 30.4482C76.0042 29.9134 75.0028 29.6076 73.9377 29.6076H55.9425C52.5995 29.6076 49.88 32.6096 49.88 36.2996V52.2978H3.125V12.7935C3.125 12.2756 3.56266 11.8379 4.08063 11.8379H10.9014C11.0225 12.382 11.2906 12.8988 11.7117 13.3198L11.9586 13.5676C11.4006 14.6053 10.9492 15.6934 10.6089 16.8215H10.2652C8.58469 16.8215 7.2175 18.1887 7.2175 19.8692V24.0188C7.2175 25.697 8.58469 27.0621 10.2652 27.0621H10.6088C10.9494 28.1928 11.4008 29.2824 11.9588 30.3204L11.7141 30.566C10.528 31.7523 10.528 33.6823 11.7141 34.8682L14.6489 37.8032C15.8366 38.9907 17.7684 38.9906 18.9556 37.8032L19.1987 37.5601C20.2397 38.1201 21.3287 38.5717 22.4552 38.9103V39.2565C22.4552 40.9345 23.8203 42.2998 25.4984 42.2998H29.6525C31.3306 42.2998 32.6959 40.9346 32.6959 39.2565V38.9103C33.8223 38.5717 34.9112 38.1203 35.9522 37.5601L36.1955 37.8034C37.3827 38.9904 39.3145 38.9907 40.5022 37.8034L43.437 34.8685C44.6231 33.6824 44.6231 31.7524 43.4392 30.5684L43.1923 30.3204C43.75 29.2824 44.2016 28.1929 44.5422 27.0623H44.8858C46.5664 27.0623 47.9336 25.6971 47.9336 24.019V19.8693C47.9336 18.1888 46.5664 16.8217 44.8858 16.8217H44.542C44.2017 15.6935 43.7505 14.6054 43.1923 13.5678L43.437 13.3221C43.8589 12.9003 44.1278 12.3826 44.2489 11.8379H75.9195C76.4375 11.8379 76.8752 12.2756 76.8752 12.7935V30.4482H76.875Z" fill="#35C5D4"/>
<path d="M27.5732 32.83C33.5782 32.83 38.4635 27.9465 38.4635 21.944C38.4635 15.9415 33.578 11.0581 27.5732 11.0581C21.5707 11.0581 16.6873 15.9415 16.6873 21.944C16.6873 27.9465 21.5707 32.83 27.5732 32.83ZM27.5732 14.1831C31.8549 14.1831 35.3385 17.6647 35.3385 21.944C35.3385 26.2234 31.8549 29.705 27.5732 29.705C23.2938 29.705 19.8123 26.2234 19.8123 21.944C19.8123 17.6647 23.2938 14.1831 27.5732 14.1831Z" fill="#35C5D4"/>
<path d="M78.4374 72.4292H71.9646C71.1018 72.4292 70.4021 71.7297 70.4021 70.8667C70.4021 70.0037 71.1018 69.3042 71.9646 69.3042H78.4374C79.3002 69.3042 79.9999 70.0037 79.9999 70.8667C79.9999 71.7297 79.3002 72.4292 78.4374 72.4292ZM57.9152 72.4292H51.4424C50.5796 72.4292 49.8799 71.7297 49.8799 70.8667C49.8799 70.0037 50.5796 69.3042 51.4424 69.3042H57.9152C58.778 69.3042 59.4777 70.0037 59.4777 70.8667C59.4777 71.7297 58.7782 72.4292 57.9152 72.4292Z" fill="#35C5D4"/>
<path d="M64.9379 72.4292C64.0751 72.4292 63.373 71.7297 63.373 70.8667C63.373 70.0037 64.0704 69.3042 64.9332 69.3042H64.9377C65.8005 69.3042 66.5002 70.0037 66.5002 70.8667C66.5002 71.7297 65.8007 72.4292 64.9379 72.4292Z" fill="#35C5D4"/>
</g>
<defs>
<clipPath id="clip0">
<rect width="80" height="80" fill="white" transform="translate(0 0.963379)"/>
</clipPath>
</defs>
</svg>
